<svg xmlns="http://www.w3.org/2000/svg" width="29.223" height="29.223" viewBox="0 0 29.223 29.223"><path d="M0,6.784V5.621A5.718,5.718,0,0,1,4.864.026a5.392,5.392,0,0,1,5.919,5.368V7.047" transform="translate(8.986 2.406)" fill="none" stroke="#cecece" stroke-linecap="round" stroke-linejoin="round" stroke-width="2.5"/><path d="M6.89,16.774h7.189c4.817,0,5.679-1.929,5.931-4.277l.9-7.189C21.232,2.384,20.393,0,15.277,0H5.692C.576,0-.263,2.384.061,5.308l.9,7.189C1.211,14.845,2.074,16.774,6.89,16.774Z" transform="translate(3.893 9.585)" fill="none" stroke="#cecece" stroke-linecap="round" stroke-linejoin="round" stroke-width="2.5"/><path d="M.495.5H.505" transform="translate(18.071 13.878)" fill="none" stroke="#cecece" stroke-linecap="round" stroke-linejoin="round" stroke-width="2.5"/><path d="M.495.5H.505" transform="translate(9.683 13.878)" fill="none" stroke="#cecece" stroke-linecap="round" stroke-linejoin="round" stroke-width="2.5"/><path d="M0,0H28.755V28.755H0Z" fill="none" opacity="0"/></svg>